<?xml version="1.0" standalone="no"?>
<!DOCTYPE svg PUBLIC "-//W3C//DTD SVG 20010904//EN"
 "http://www.w3.org/TR/2001/REC-SVG-20010904/DTD/svg10.dtd">
<svg version="1.0" xmlns="http://www.w3.org/2000/svg"
 width="512.000000pt" height="512.000000pt" viewBox="0 0 512.000000 512.000000"
 preserveAspectRatio="xMidYMid meet">

<g transform="translate(0.000000,512.000000) scale(0.100000,-0.100000)"
fill="#000000" stroke="none">
<path d="M2480 5113 c-378 -12 -731 -102 -1071 -274 -245 -124 -460 -279 -654
-474 -449 -449 -714 -1043 -743 -1666 -30 -621 131 -1153 508 -1679 60 -85
170 -207 276 -309 857 -824 2183 -942 3174 -283 1257 836 1525 2552 582 3736
-432 542 -1149 913 -1821 942 -64 3 -129 6 -146 7 -16 1 -64 1 -105 0z m320
-1138 c233 -38 488 -161 704 -339 l70 -57 81 81 c44 44 88 80 97 80 34 0 38
-34 38 -349 0 -298 -1 -312 -20 -331 -19 -19 -33 -20 -331 -20 -195 0 -318 4
-330 10 -33 18 -21 43 56 120 41 41 75 78 75 82 0 12 -72 74 -137 121 -76 53
-177 100 -288 133 -82 25 -105 28 -255 28 -196 0 -266 -16 -425 -93 -175 -86
-316 -213 -430 -390 -33 -50 -66 -93 -75 -97 -22 -9 -373 -18 -403 -10 -40 10
-42 38 -7 129 110 284 336 553 597 711 145 87 341 159 503 186 41 6 82 13 90
15 50 10 308 3 390 -10z m1123 -1816 c15 -23 -60 -205 -137 -333 -150 -250
-328 -414 -581 -537 -225 -109 -377 -148 -611 -156 -126 -4 -184 -2 -263 11
-245 41 -490 157 -716 339 l-70 56 -92 -90 c-79 -78 -94 -89 -111 -80 -11 6
-22 18 -26 27 -3 8 -6 159 -6 334 0 277 2 321 16 334 14 14 57 16 357 14 l342
-3 3 -24 c3 -19 -15 -43 -84 -112 -48 -49 -86 -90 -83 -93 11 -10 239 -146
284 -168 134 -68 314 -104 473 -95 316 18 592 185 787 476 38 57 78 107 89
112 12 4 111 7 220 6 171 -2 200 -4 209 -18z"/>
</g>
</svg>
