<?xml version="1.0" standalone="no"?>
<!DOCTYPE svg PUBLIC "-//W3C//DTD SVG 20010904//EN"
 "http://www.w3.org/TR/2001/REC-SVG-20010904/DTD/svg10.dtd">
<svg version="1.0" xmlns="http://www.w3.org/2000/svg"
 width="512.000000pt" height="512.000000pt" viewBox="0 0 512.000000 512.000000"
 preserveAspectRatio="xMidYMid meet">

<g transform="translate(0.000000,512.000000) scale(0.100000,-0.100000)"
fill="#000000" stroke="none">
<path d="M2280 4544 c-194 -18 -413 -64 -585 -124 -131 -46 -374 -168 -491
-247 -320 -215 -590 -517 -753 -840 -23 -46 -43 -83 -46 -83 -3 0 -84 32 -180
70 -182 73 -206 76 -217 33 -2 -10 40 -218 94 -463 53 -245 114 -524 134 -620
20 -96 40 -183 45 -192 22 -42 56 -22 548 324 565 397 561 394 561 418 0 32
-24 45 -210 120 -138 55 -180 76 -176 87 4 8 29 48 57 88 343 497 896 845
1489 938 225 36 282 40 430 34 344 -15 604 -80 921 -228 112 -52 135 -54 145
-12 8 30 -18 59 -156 175 -313 264 -705 439 -1120 503 -103 15 -401 27 -490
19z"/>
</g>
</svg>
